<?xml version="1.0" standalone="no"?>
<!DOCTYPE svg PUBLIC "-//W3C//DTD SVG 20010904//EN"
 "http://www.w3.org/TR/2001/REC-SVG-20010904/DTD/svg10.dtd">
<svg version="1.0" xmlns="http://www.w3.org/2000/svg"
 width="256.000000pt" height="256.000000pt" viewBox="0 0 256.000000 256.000000"
 preserveAspectRatio="xMidYMid meet">
<metadata>
Created by potrace 1.14, written by Peter Selinger 2001-2017
</metadata>
<g transform="translate(0.000000,256.000000) scale(0.100000,-0.100000)"
fill="#000000" stroke="none">
<path d="M0 2355 c0 -23 10 -30 34 -26 4 1 17 -1 27 -4 15 -5 19 -16 19 -57
l0 -51 -41 6 c-37 5 -40 3 -37 -16 3 -21 8 -22 178 -28 96 -4 240 -7 320 -8
80 -1 152 -6 160 -11 12 -7 16 -39 18 -159 l3 -150 -23 -5 c-187 -37 -244 -51
-321 -77 -117 -39 -178 -71 -221 -113 -41 -39 -49 -65 -44 -141 l3 -55 -37 0
-38 0 0 -95 0 -95 34 0 c19 0 41 -3 50 -6 11 -4 16 0 16 11 0 16 2 17 17 3 45
-38 155 -68 323 -88 52 -6 125 -15 163 -20 37 -6 102 -11 145 -12 l77 -2 -83
-5 -83 -6 0 -153 c0 -87 -5 -165 -11 -180 -6 -15 -10 -65 -10 -111 0 -67 4
-86 17 -93 16 -9 190 -2 207 8 5 3 84 8 176 10 92 3 172 7 179 9 6 2 13 14 16
27 2 13 4 -65 3 -172 l-1 -195 -275 -3 c-272 -3 -533 14 -620 39 -146 42 -210
79 -210 122 0 18 -2 19 -10 7 -16 -24 -12 -183 5 -224 37 -89 199 -140 520
-165 190 -15 830 -22 1404 -14 l501 6 0 34 c0 33 -1 33 -45 33 l-45 0 0 55 0
55 45 0 c41 0 45 2 45 25 0 14 -6 25 -12 25 -7 0 -202 -1 -433 -2 -567 -4
-755 -2 -766 9 -5 5 -8 89 -7 189 3 152 5 174 15 144 6 -19 12 -27 12 -17 1
10 6 15 11 12 6 -4 8 -11 5 -16 -4 -5 -1 -9 4 -9 6 0 11 5 11 10 0 23 16 8 18
-17 3 -33 12 -44 12 -15 0 12 5 22 10 22 6 0 10 -6 10 -14 0 -8 4 -18 10 -21
15 -10 -1 28 -18 43 -14 11 -13 12 4 12 13 0 20 -7 21 -22 1 -11 7 -24 14 -28
8 -6 8 -9 -2 -13 -10 -4 -10 -6 -1 -6 6 -1 12 -6 12 -13 0 -9 -3 -9 -12 0 -17
17 -38 15 -38 -3 0 -8 8 -16 18 -16 9 -1 4 -5 -13 -9 l-30 -8 30 -2 c17 -1 24
-4 18 -7 -16 -6 -17 -30 -1 -35 8 -3 6 -7 -5 -11 -9 -3 -16 -3 -16 1 4 23 -2
42 -11 37 -7 -4 -8 -11 -1 -18 5 -7 8 -37 7 -67 -2 -30 -1 -48 1 -38 2 9 12
19 21 23 14 5 15 4 5 -6 -7 -7 -13 -24 -13 -37 0 -21 -4 -24 -30 -20 -17 3
-33 1 -36 -4 -6 -10 9 -10 724 -9 l432 1 0 420 0 420 -140 -2 c-77 -1 -143 2
-147 5 -3 4 64 7 150 7 l157 0 0 30 c0 27 -3 30 -31 30 l-30 0 3 53 c3 48 5
52 31 55 24 3 27 7 27 40 l0 37 -157 0 -158 0 1 60 c0 33 4 196 8 363 8 347
11 334 -75 377 -117 60 -338 100 -734 135 -118 10 -1105 40 -1323 40 l-112 0
0 -25z m238 -44 c8 -5 12 -23 10 -47 -3 -37 -5 -39 -38 -39 -31 0 -35 3 -42
35 -4 19 -5 41 -3 48 5 14 53 16 73 3z m173 -11 c1 -5 1 -21 1 -35 0 -14 0
-29 -1 -35 -1 -5 -16 -10 -35 -10 -35 0 -46 15 -46 68 0 19 5 22 40 22 22 0
40 -4 41 -10z m167 -2 c7 -7 12 -27 12 -44 0 -36 -23 -50 -66 -40 -21 6 -24
12 -24 51 0 44 1 45 33 45 18 0 38 -5 45 -12z m170 -41 l3 -48 -38 3 c-35 3
-38 6 -41 36 -5 52 3 64 40 60 32 -3 33 -5 36 -51z m172 -2 l0 -45 -40 0 -40
0 0 45 0 45 40 0 40 0 0 -45z m165 -5 c0 -45 0 -45 -35 -45 -35 0 -35 0 -38
48 l-3 48 38 -3 c38 -3 38 -3 38 -48z m170 -10 c0 -42 -2 -45 -28 -48 -48 -6
-62 21 -48 96 1 2 18 2 39 0 37 -3 37 -3 37 -48z m165 -5 l0 -45 -40 0 -40 0
0 45 0 45 40 0 40 0 0 -45z m163 25 c5 -4 7 -25 5 -46 -3 -34 -6 -39 -31 -42
-16 -2 -34 1 -40 6 -13 11 -15 71 -3 91 7 11 53 6 69 -9z m151 -6 c22 -8 22
-92 1 -100 -47 -19 -85 25 -71 81 6 25 34 33 70 19z m140 -24 c23 -8 26 -15
26 -55 0 -43 -1 -45 -28 -45 -15 0 -33 5 -40 12 -16 16 -15 85 1 91 6 3 13 6
14 6 1 1 13 -3 27 -9z m164 -78 c4 -47 -12 -61 -47 -42 -16 8 -21 20 -21 49 0
46 4 51 38 42 23 -6 27 -13 30 -49z m-873 -2 c181 -6 400 -17 485 -25 189 -19
193 -22 186 -124 -3 -36 -5 -69 -6 -72 -1 -14 -242 -29 -555 -33 -181 -3 -348
-10 -370 -15 -22 -5 -68 -11 -102 -15 l-63 -6 0 142 c0 157 6 173 65 163 16
-3 178 -10 360 -15z m973 8 c17 -17 16 -98 -1 -98 -26 0 -44 33 -40 73 5 38
19 47 41 25z m80 -86 c2 -33 0 -42 -12 -42 -12 0 -16 11 -16 46 0 59 24 55 28
-4z m-237 -6 c83 -22 170 -57 164 -66 -13 -20 -236 -77 -256 -64 -13 8 -11
118 3 132 15 15 22 15 89 -2z m159 -195 c0 -22 -6 -44 -15 -51 -13 -11 -15 -6
-15 32 0 25 3 48 7 51 15 16 23 5 23 -32z m-112 -47 c-2 -32 -7 -39 -30 -45
-28 -7 -28 -7 -28 41 0 43 3 49 23 52 32 6 39 -4 35 -48z m-200 -24 c-4 -60
-22 -71 -26 -16 -4 43 2 66 18 66 7 0 10 -19 8 -50z m-128 -14 c0 -46 -9 -56
-56 -56 -25 0 -26 1 -26 50 0 17 1 35 1 40 1 6 19 10 41 10 l40 0 0 -44z
m-570 -6 c0 -22 1 -43 3 -47 1 -5 -15 -9 -35 -11 l-38 -3 0 45 c0 41 2 45 28
49 15 2 30 5 35 6 4 0 7 -17 7 -39z m191 36 c3 -3 3 -23 1 -45 -4 -39 -6 -41
-38 -41 -34 0 -34 1 -34 45 0 44 0 45 33 45 19 0 36 -2 38 -4z m190 0 c3 -3 3
-23 1 -46 -4 -41 -5 -41 -41 -38 -31 3 -36 7 -39 31 -5 44 4 57 41 57 19 0 36
-2 38 -4z m-561 -61 c0 -29 -4 -45 -12 -45 -7 0 -23 -3 -35 -6 -21 -6 -23 -3
-23 38 0 52 4 58 42 58 27 0 28 -2 28 -45z m-180 -19 c0 -25 -4 -48 -10 -51
-6 -4 -10 13 -10 44 0 28 5 51 10 51 6 0 10 -20 10 -44z m-172 -23 c0 -45 -12
-63 -44 -63 -22 0 -24 4 -24 44 0 45 6 52 52 55 12 1 16 -8 16 -36z m-168 -42
c0 -42 -3 -49 -22 -54 -27 -8 -25 -10 -30 38 -3 33 1 41 22 52 14 7 26 13 28
13 1 0 2 -22 2 -49z m-130 -46 c0 -34 -5 -47 -19 -55 -11 -5 -22 -10 -25 -10
-12 0 -6 98 7 103 31 13 37 6 37 -38z m-122 -62 c-4 -62 -28 -71 -28 -10 0 24
3 47 7 50 16 17 24 3 21 -40z m-98 -189 c0 -41 -2 -45 -22 -42 -40 5 -38 88 2
88 17 0 20 -6 20 -46z m2298 -57 c6 -7 8 -31 5 -54 -5 -39 -8 -41 -42 -46 -20
-2 -42 -2 -48 1 -14 4 -19 93 -6 105 11 12 80 7 91 -6z m-1141 -209 c-3 -8 -6
-5 -6 6 -1 11 2 17 5 13 3 -3 4 -12 1 -19z m0 -170 c-2 -29 -3 -6 -3 52 0 58
1 81 3 53 2 -29 2 -77 0 -105z m0 -190 c-2 -18 -4 -6 -4 27 0 33 2 48 4 33 2
-15 2 -42 0 -60z m-121 19 c3 -21 -14 -33 -28 -19 -13 13 -2 45 14 40 6 -2 12
-12 14 -21z m-172 -3 c9 -22 -11 -53 -31 -50 -19 3 -28 28 -19 52 7 19 42 18
50 -2z m-164 -37 c0 -27 -10 -41 -34 -50 -26 -10 -46 10 -46 45 0 21 6 31 23
37 29 11 57 -4 57 -32z m697 -239 c-3 -7 -5 -2 -5 12 0 14 2 19 5 13 2 -7 2
-19 0 -25z m-10 -73 c-8 -9 -14 -10 -19 -2 -9 16 0 27 17 21 11 -5 12 -9 2
-19z m-1279 -130 c3 -59 3 -59 -17 -41 -28 26 -31 109 -3 104 13 -3 18 -15 20
-63z m154 -7 c4 -7 7 -31 6 -53 -3 -46 -24 -56 -63 -31 -21 14 -25 25 -25 63
l0 46 37 -6 c20 -4 40 -12 45 -19z m180 -24 c5 -3 8 -28 8 -55 l0 -50 -42 3
c-39 3 -43 5 -50 38 -4 19 -5 46 -2 59 4 21 9 22 42 16 20 -4 40 -9 44 -11z
m201 -28 c4 -6 6 -29 5 -51 -3 -33 -7 -41 -27 -43 -12 -2 -34 -1 -47 2 -21 6
-24 12 -24 55 0 26 3 51 7 54 9 10 76 -4 86 -17z m202 -41 l0 -50 -47 -3 -48
-3 0 56 0 56 48 -3 47 -3 0 -50z m203 -2 c2 -29 -1 -53 -5 -54 -81 -8 -93 -2
-93 46 0 57 8 66 54 63 l41 -3 3 -52z m200 45 c7 -7 12 -31 12 -54 0 -45 -10
-54 -59 -54 -37 0 -51 17 -51 60 0 20 5 41 12 48 16 16 70 16 86 0z m201 -2
c7 -8 11 -34 9 -58 l-3 -43 -45 0 -45 0 -3 52 -3 52 33 4 c18 2 36 5 39 5 4 1
12 -4 18 -12z m409 2 c17 -17 15 -83 -2 -97 -8 -7 -30 -11 -48 -9 -32 3 -33 5
-36 52 -2 32 1 52 10 57 19 13 62 11 76 -3z m207 -43 c0 -49 0 -50 -35 -55
-19 -4 -41 -4 -47 -2 -14 4 -18 93 -6 106 4 4 25 6 48 4 l40 -3 0 -50z m201
45 c6 -6 8 -29 5 -53 l-6 -42 -47 -3 -48 -3 0 49 c0 27 3 52 7 55 10 11 78 8
89 -3z m-600 -15 c3 -8 2 -32 -3 -52 -8 -36 -11 -38 -51 -41 l-42 -3 0 55 0
56 45 0 c31 0 47 -5 51 -15z"/>
<path d="M101 894 c0 -11 3 -14 6 -6 3 7 2 16 -1 19 -3 4 -6 -2 -5 -13z"/>
<path d="M1355 580 c3 -5 8 -10 11 -10 2 0 4 5 4 10 0 6 -5 10 -11 10 -5 0 -7
-4 -4 -10z"/>
<path d="M122 520 c0 -14 2 -19 5 -12 2 6 2 18 0 25 -3 6 -5 1 -5 -13z"/>
<path d="M1380 475 c-7 -9 -11 -17 -9 -20 3 -2 10 5 17 15 14 24 10 26 -8 5z"/>
<path d="M1380 435 c-7 -8 -9 -15 -6 -15 4 0 14 7 22 15 9 8 11 15 6 15 -5 0
-15 -7 -22 -15z"/>
<path d="M1385 390 c-3 -6 1 -7 9 -4 18 7 21 14 7 14 -6 0 -13 -4 -16 -10z"/>
</g>
</svg>
